<svg width="27" height="27" viewBox="0 0 27 27" fill="none" xmlns="http://www.w3.org/2000/svg">
<path d="M19.2412 23.0895C18.2206 23.0895 17.2418 22.684 16.5201 21.9624C15.7985 21.2407 15.393 20.2619 15.393 19.2412C15.393 18.2206 15.7985 17.2418 16.5201 16.5201C17.2418 15.7985 18.2206 15.393 19.2412 15.393C20.2619 15.393 21.2407 15.7985 21.9624 16.5201C22.684 17.2418 23.0895 18.2206 23.0895 19.2412C23.0895 20.2619 22.684 21.2407 21.9624 21.9624C21.2407 22.684 20.2619 23.0895 19.2412 23.0895V23.0895ZM19.2412 20.8905C19.6787 20.8905 20.0981 20.7167 20.4074 20.4074C20.7167 20.0981 20.8905 19.6787 20.8905 19.2412C20.8905 18.8038 20.7167 18.3844 20.4074 18.0751C20.0981 17.7658 19.6787 17.592 19.2412 17.592C18.8038 17.592 18.3844 17.7658 18.0751 18.0751C17.7658 18.3844 17.592 18.8038 17.592 19.2412C17.592 19.6787 17.7658 20.0981 18.0751 20.4074C18.3844 20.7167 18.8038 20.8905 19.2412 20.8905ZM7.14681 10.995C6.64146 10.995 6.14105 10.8955 5.67416 10.7021C5.20727 10.5087 4.78304 10.2253 4.4257 9.86792C4.06836 9.51058 3.7849 9.08636 3.59151 8.61947C3.39812 8.15258 3.29858 7.65217 3.29858 7.14681C3.29858 6.64146 3.39812 6.14105 3.59151 5.67416C3.7849 5.20727 4.06836 4.78305 4.4257 4.4257C4.78304 4.06836 5.20727 3.7849 5.67416 3.59151C6.14105 3.39812 6.64146 3.29858 7.14681 3.29858C8.16743 3.29858 9.14624 3.70402 9.86792 4.4257C10.5896 5.14739 10.995 6.1262 10.995 7.14681C10.995 8.16743 10.5896 9.14624 9.86792 9.86792C9.14624 10.5896 8.16743 10.995 7.14681 10.995V10.995ZM7.14681 8.79605C7.58422 8.79605 8.00371 8.6223 8.313 8.313C8.6223 8.00371 8.79605 7.58422 8.79605 7.14681C8.79605 6.70941 8.6223 6.28992 8.313 5.98062C8.00371 5.67133 7.58422 5.49757 7.14681 5.49757C6.70941 5.49757 6.28992 5.67133 5.98062 5.98062C5.67133 6.28992 5.49757 6.70941 5.49757 7.14681C5.49757 7.58422 5.67133 8.00371 5.98062 8.313C6.28992 8.6223 6.70941 8.79605 7.14681 8.79605V8.79605ZM20.9686 3.86482L22.5232 5.41951L5.42061 22.5232L3.86592 20.9686L20.9675 3.86482H20.9686Z" fill="#FF0000"/>
</svg>
