<svg width="200" height="200" viewBox="0 0 200 200" fill="none" xmlns="http://www.w3.org/2000/svg">
<path d="M199.941 0H0.0585938C0.0262333 0 0 0.0262333 0 0.0585938V199.941C0 199.974 0.0262333 200 0.0585938 200H199.941C199.974 200 200 199.974 200 199.941V0.0585938C200 0.0262333 199.974 0 199.941 0Z" fill="#CC6699"/>
<path d="M100.781 34.375C63.2812 47.2656 39.0625 73.4375 41.4062 89.0625C43.75 104.687 67.1875 117.187 77.7344 125.391C64.0625 132.422 46.875 142.969 47.2656 156.641C48.0469 175.391 68.3594 169.531 76.9531 164.062C85.5469 158.594 94.1406 143.359 88.6719 127.344C100.781 124.219 111.328 128.125 114.453 130.469C126.562 139.062 120.312 148.828 116.016 150.391C111.719 151.953 114.453 152.734 117.187 151.953C119.922 151.172 125.781 147.266 125.781 140.625C125.781 123.828 107.812 116.016 85.5469 121.875C72.6562 108.203 55.0781 101.953 55.8594 87.1094C56.25 81.6406 58.2031 67.5781 92.9687 50C127.734 32.4219 152.344 39.4531 149.219 55.4687C144.531 79.6875 102.344 96.0937 87.5 82.0312C86.7187 80.4687 83.9844 79.2969 85.5469 83.5937C93.3594 103.125 156.641 94.1406 159.375 52.7344C160.156 30.8594 128.516 25 100.781 34.375ZM67.1875 159.375C57.4219 162.5 57.8125 156.25 58.2031 153.906C59.375 147.266 64.8437 139.062 81.25 130.859C85.9375 145.703 75.3906 157.031 67.1875 159.375Z" fill="white"/>
</svg>
