<svg width="148" height="106" viewBox="0 0 148 106" fill="none" xmlns="http://www.w3.org/2000/svg">
<path d="M10.5714 0H63.4286C66.2323 0 68.9212 1.11377 70.9037 3.0963C72.8862 5.07883 74 7.76771 74 10.5714C74 13.3751 72.8862 16.064 70.9037 18.0466C68.9212 20.0291 66.2323 21.1429 63.4286 21.1429H10.5714C7.76771 21.1429 5.07883 20.0291 3.0963 18.0466C1.11377 16.064 0 13.3751 0 10.5714C0 7.76771 1.11377 5.07883 3.0963 3.0963C5.07883 1.11377 7.76771 0 10.5714 0V0ZM84.5714 84.5714H137.429C140.232 84.5714 142.921 85.6852 144.904 87.6677C146.886 89.6503 148 92.3391 148 95.1429C148 97.9466 146.886 100.635 144.904 102.618C142.921 104.601 140.232 105.714 137.429 105.714H84.5714C81.7677 105.714 79.0788 104.601 77.0963 102.618C75.1138 100.635 74 97.9466 74 95.1429C74 92.3391 75.1138 89.6503 77.0963 87.6677C79.0788 85.6852 81.7677 84.5714 84.5714 84.5714ZM10.5714 42.2857H137.429C140.232 42.2857 142.921 43.3995 144.904 45.382C146.886 47.3645 148 50.0534 148 52.8571C148 55.6609 146.886 58.3497 144.904 60.3323C142.921 62.3148 140.232 63.4286 137.429 63.4286H10.5714C7.76771 63.4286 5.07883 62.3148 3.0963 60.3323C1.11377 58.3497 0 55.6609 0 52.8571C0 50.0534 1.11377 47.3645 3.0963 45.382C5.07883 43.3995 7.76771 42.2857 10.5714 42.2857V42.2857Z" fill="white"/>
</svg>
