<svg width="177" height="201" viewBox="0 0 177 201" fill="none" xmlns="http://www.w3.org/2000/svg">
<path d="M16.0499 180.086L0 0H176.42L160.348 180.057L88.1027 200.087L16.0499 180.086Z" fill="#1572B6"/>
<path d="M88.21 184.781L146.593 168.595L160.327 14.7281H88.21V184.781Z" fill="#33A9DC"/>
<path d="M88.21 79.971H117.437L119.452 57.354H88.21V35.2657H88.2886H143.591L143.062 41.1898L137.639 102.059H88.21V79.971Z" fill="white"/>
<path d="M88.3456 137.331L88.2456 137.36L63.6491 130.714L62.077 113.099H50.1218H39.9031L42.9973 147.779L88.2384 160.342L88.3456 160.313V137.331Z" fill="#EBEBEB"/>
<path d="M115.558 101.123L112.9 130.7L88.2673 137.346V160.327L133.544 147.779L133.88 144.049L137.717 101.123H115.558Z" fill="white"/>
<path d="M88.289 35.2657V48.986V57.2968V57.354H35.0087H34.9372L34.4941 52.3875L33.4866 41.1898L32.9578 35.2657H88.289Z" fill="#EBEBEB"/>
<path d="M88.2094 79.9708V93.6911V102.002V102.059H63.9917H63.9203L63.4772 97.0926L62.4768 85.8948L61.948 79.9708H88.2094Z" fill="#EBEBEB"/>
</svg>
