<svg width="148" height="200" viewBox="0 0 148 200" fill="none" xmlns="http://www.w3.org/2000/svg">
<path d="M47.5026 154.668C47.5026 154.668 39.8647 159.113 52.9454 160.613C68.7947 162.423 76.894 162.164 94.3552 158.863C94.3552 158.863 98.9552 161.739 105.367 164.232C66.2103 181.008 16.7509 163.26 47.5026 154.668ZM42.7151 132.774C42.7151 132.774 34.1464 139.117 47.2382 140.473C64.1691 142.221 77.5365 142.363 100.679 137.909C100.679 137.909 103.872 141.154 108.902 142.926C61.5686 156.769 8.84866 144.015 42.7151 132.774V132.774Z" fill="#0074BD"/>
<path d="M83.0482 95.6279C92.7017 106.739 80.5166 116.729 80.5166 116.729C80.5166 116.729 105.013 104.086 93.7655 88.2464C83.2565 73.4818 75.2004 66.1484 118.816 40.8523C118.816 40.8539 50.3513 57.9482 83.0482 95.6279V95.6279Z" fill="#EA2D2E"/>
<path d="M134.834 170.866C134.834 170.866 140.488 175.528 128.605 179.132C106.01 185.976 34.5437 188.04 14.6952 179.406C7.56365 176.3 20.9423 171.995 25.1514 171.087C29.5399 170.137 32.0458 170.31 32.0458 170.31C24.1099 164.723 -19.2466 181.285 10.0263 186.036C89.8513 198.975 155.537 180.208 134.834 170.866V170.866ZM51.1797 110.085C51.1797 110.085 14.8314 118.719 38.309 121.858C48.2236 123.185 67.9791 122.88 86.3936 121.336C101.439 120.072 116.537 117.372 116.537 117.372C116.537 117.372 111.236 119.645 107.397 122.263C70.4786 131.975 -0.824059 127.452 19.7054 117.524C37.0608 109.13 51.1797 110.085 51.1797 110.085V110.085ZM116.386 146.531C153.912 127.037 136.56 108.302 124.448 110.825C121.487 111.442 120.159 111.979 120.159 111.979C120.159 111.979 121.262 110.25 123.364 109.506C147.322 101.087 165.744 134.346 115.636 147.52C115.636 147.516 116.211 146.996 116.386 146.531V146.531Z" fill="#0074BD"/>
<path d="M93.7655 0C93.7655 0 114.543 20.7906 74.0532 52.7504C41.5823 78.3958 66.6493 93.0146 74.042 109.724C55.086 92.6237 41.1818 77.5674 50.5084 63.5559C64.2043 42.9928 102.147 33.0189 93.7655 0V0Z" fill="#EA2D2E"/>
<path d="M54.868 199.373C90.8799 201.675 146.195 198.091 147.504 181.05C147.504 181.05 144.987 187.51 117.74 192.635C86.9993 198.423 49.0775 197.748 26.5934 194.036C26.5934 194.037 31.1998 197.851 54.868 199.373V199.373Z" fill="#0074BD"/>
</svg>
