<svg width="200" height="200" viewBox="0 0 200 200" fill="none" xmlns="http://www.w3.org/2000/svg">
<path d="M190.629 0H9.37143C4.19573 0 0 4.19573 0 9.37143V190.629C0 195.804 4.19573 200 9.37143 200H190.629C195.804 200 200 195.804 200 190.629V9.37143C200 4.19573 195.804 0 190.629 0Z" fill="#3178C6"/>
<path fill-rule="evenodd" clip-rule="evenodd" d="M116.036 155.421V177.336C120.017 179.301 124.261 180.684 128.636 181.443C133.691 182.376 138.823 182.835 143.964 182.814C148.975 182.838 153.974 182.333 158.879 181.307C163.282 180.417 167.483 178.722 171.271 176.307C174.788 174.037 177.687 170.93 179.707 167.264C183.326 159.674 183.803 150.962 181.036 143.021C179.868 140.052 178.128 137.341 175.914 135.043C173.538 132.599 170.84 130.491 167.893 128.778C164.5 126.791 160.975 125.04 157.343 123.536C154.486 122.35 151.914 121.197 149.629 120.078C147.598 119.106 145.656 117.962 143.821 116.657C142.385 115.65 141.137 114.397 140.136 112.957C139.27 111.649 138.82 110.111 138.843 108.543C138.824 107.1 139.226 105.682 140 104.464C140.841 103.189 141.962 102.124 143.279 101.35C144.888 100.403 146.639 99.72 148.464 99.3284C150.706 98.8305 152.997 98.5908 155.293 98.6142C157.224 98.6208 159.152 98.7592 161.064 99.0284C163.129 99.3076 165.172 99.7301 167.179 100.293C169.219 100.858 171.215 101.575 173.15 102.436C175.027 103.272 176.823 104.282 178.514 105.45V84.9999C174.994 83.6679 171.343 82.7102 167.621 82.1427C163.128 81.4889 158.591 81.1808 154.05 81.2213C149.087 81.1946 144.138 81.758 139.307 82.8999C134.941 83.8976 130.79 85.6709 127.05 88.1356C123.576 90.4496 120.708 93.5628 118.686 97.2142C116.543 101.269 115.482 105.808 115.607 110.393C115.449 116.455 117.446 122.378 121.243 127.107C125.901 132.35 131.776 136.37 138.35 138.814C141.35 140.052 144.148 141.264 146.743 142.45C149.084 143.492 151.335 144.727 153.471 146.143C155.195 147.264 156.708 148.678 157.943 150.321C159.029 151.812 159.605 153.613 159.586 155.457C159.596 156.839 159.241 158.199 158.557 159.4C157.798 160.69 156.73 161.773 155.45 162.55C153.848 163.526 152.096 164.231 150.264 164.636C147.878 165.169 145.438 165.421 142.993 165.386C138.195 165.377 133.436 164.531 128.929 162.886C124.22 161.187 119.854 158.659 116.036 155.421V155.421ZM79.2214 100.864H107.793V82.8142H28.1286V100.864H56.5715V181.25H79.2214V100.864Z" fill="white"/>
</svg>
