<svg width="202" height="200" viewBox="0 0 202 200" fill="none" xmlns="http://www.w3.org/2000/svg">
<path d="M99.7987 0C48.7605 3.63702e-06 51.9477 22.1332 51.9477 22.1332L52.0046 45.063H100.709V51.9477H32.6593C32.6593 51.9477 0 48.2438 0 99.7418C-3.64489e-06 151.24 28.5058 149.414 28.5058 149.414H45.5182V125.517C45.5182 125.517 44.6012 97.0107 73.5688 97.0107H121.875C121.875 97.0107 149.015 97.4495 149.015 70.7809V26.6851C149.015 26.6851 153.136 0 99.7987 0V0ZM72.943 15.4193C77.7887 15.4193 81.7052 19.3358 81.7052 24.1816C81.7052 29.0273 77.7887 32.9438 72.943 32.9438C68.0972 32.9438 64.1807 29.0273 64.1807 24.1816C64.1807 19.3358 68.0972 15.4193 72.943 15.4193Z" fill="url(#paint0_linear_15_104)"/>
<path d="M101.248 200C152.286 200 149.099 177.867 149.099 177.867L149.042 154.937H100.338V148.052H168.388C168.388 148.052 201.047 151.756 201.047 100.258C201.047 48.7602 172.541 50.5864 172.541 50.5864H155.529V74.4834C155.529 74.4834 156.446 102.989 127.478 102.989H79.1719C79.1719 102.989 52.0317 102.551 52.0317 129.219V173.315C52.0317 173.315 47.911 200 101.248 200V200ZM128.104 184.581C123.258 184.581 119.342 180.664 119.342 175.818C119.342 170.973 123.258 167.056 128.104 167.056C132.95 167.056 136.866 170.973 136.866 175.818C136.866 180.664 132.95 184.581 128.104 184.581Z" fill="url(#paint1_linear_15_104)"/>
<defs>
<linearGradient id="paint0_linear_15_104" x1="19.321" y1="17.9895" x2="118.953" y2="116.627" gradientUnits="userSpaceOnUse">
<stop stop-color="#387EB8"/>
<stop offset="1" stop-color="#366994"/>
</linearGradient>
<linearGradient id="paint1_linear_15_104" x1="80.4749" y1="81.3281" x2="187.469" y2="182.472" gradientUnits="userSpaceOnUse">
<stop stop-color="#FFE052"/>
<stop offset="1" stop-color="#FFC331"/>
</linearGradient>
</defs>
</svg>
