<svg width="200" height="200" viewBox="0 0 200 200" fill="none" xmlns="http://www.w3.org/2000/svg">
<path d="M0 174.212C0 188.456 11.5457 200 25.7881 200H174.212C188.456 200 200 188.454 200 174.212V25.7881C200 11.5442 188.454 0 174.212 0H25.7881C11.5442 0 0 11.5457 0 25.7881L0 174.212Z" fill="#563D7C"/>
<path d="M82.9355 88.4673V60.1442H107.867C110.241 60.1442 112.531 60.3421 114.735 60.7378C116.94 61.1335 118.891 61.8402 120.587 62.8578C122.283 63.8754 123.639 65.2887 124.657 67.0978C125.675 68.9068 126.183 71.2247 126.183 74.0513C126.183 79.1393 124.657 82.814 121.604 85.0753C118.551 87.3366 114.651 88.4673 109.902 88.4673H82.9355ZM56.3085 39.4531V160.547H114.99C120.417 160.547 125.703 159.868 130.847 158.512C135.992 157.155 140.571 155.063 144.585 152.237C148.599 149.41 151.793 145.764 154.167 141.297C156.542 136.831 157.729 131.545 157.729 125.44C157.729 117.864 155.891 111.391 152.217 106.021C148.542 100.65 142.974 96.8907 135.511 94.7424C140.938 92.1419 145.037 88.8065 147.807 84.7361C150.577 80.6657 151.962 75.5778 151.962 69.4722C151.962 63.8188 151.03 59.0701 149.164 55.2258C147.298 51.3816 144.67 48.3006 141.278 45.9827C137.886 43.6648 133.815 41.9971 129.066 40.9795C124.318 39.9619 119.06 39.4531 113.294 39.4531H56.3085ZM82.9355 139.856V106.614H111.937C117.703 106.614 122.339 107.943 125.844 110.6C129.349 113.257 131.102 117.695 131.102 123.913C131.102 127.079 130.565 129.68 129.49 131.715C128.416 133.75 126.975 135.361 125.166 136.549C123.357 137.736 121.265 138.584 118.891 139.093C116.516 139.601 114.029 139.856 111.428 139.856H82.9355Z" fill="white"/>
</svg>
