<svg width="147" height="147" viewBox="0 0 147 147" fill="none" xmlns="http://www.w3.org/2000/svg">
<path d="M80.056 6.45461L9.68062 50.9947C4.38248 54.3479 2.80447 61.3669 6.15763 66.665L50.6977 137.04C54.0509 142.338 61.0699 143.916 66.368 140.563L136.743 96.0232C142.042 92.6701 143.62 85.6511 140.266 80.3529L95.7263 9.97759C92.3731 4.67945 85.3541 3.10144 80.056 6.45461ZM104.076 98.6935C102.586 100.056 101.308 99.4089 100.764 98.5492C100.081 97.4696 96.6287 91.9262 93.807 87.4678C91.833 84.3489 89.5407 83.0275 87.6632 82.7598C94.5418 77.2583 101.694 71.3038 93.6082 58.5283C91.3053 54.8895 88.8542 53.8927 85.2545 52.8947C85.0503 51.8199 83.9503 47.5599 79.2206 44.113C75.8975 45.0121 72.3488 53.4744 72.3488 53.4744C69.2415 54.4049 66.1421 55.8345 63.3231 57.6186C60.5041 59.4027 57.8855 61.592 55.7146 64.002C55.7146 64.002 46.5478 63.5874 44.3128 66.2059C45.3911 71.9358 48.7504 74.7659 49.667 75.4179C49.0282 79.0983 49.18 81.5503 51.4829 85.1891C59.5305 97.9046 67.6712 94.2645 75.5874 90.4024C75.1718 91.8695 75.2485 93.8931 76.2898 96.2021C74.9346 98.2639 71.0127 102.818 64.8744 99.5347C61.0558 97.5273 57.6125 99.3426 57.6125 99.3426C54.3483 101.352 58.6832 101.521 58.6832 101.521C61.4751 101.154 65.424 104.031 65.424 104.031C71.1214 108.742 79.1328 100.871 79.1328 100.871C80.8917 103.65 83.7913 108.143 84.3101 108.963C84.8542 109.823 84.9124 111.242 83.0232 112.018C67.0314 115.95 49.8483 109.241 40.5606 94.5658C28.9448 76.2122 34.1604 53.3944 52.514 41.7786C70.8676 30.1627 94.5618 34.6837 106.178 53.0372C115.485 67.6994 114.487 85.9438 104.076 98.6935ZM76.7314 98.8908C76.4022 99.2112 75.9411 99.279 75.7366 99.0444C75.5068 98.7698 75.6022 98.3454 75.9315 98.025C76.286 97.7446 76.7471 97.6768 76.9516 97.9114C77.1761 98.1334 77.0807 98.5578 76.7314 98.8908ZM74.7182 99.9129C74.8827 100.173 74.722 100.583 74.3221 100.836C73.9076 101.154 73.4685 101.124 73.2787 100.824C73.1142 100.564 73.2749 100.154 73.6748 99.9013C74.0293 99.6209 74.5284 99.6131 74.7182 99.9129ZM71.84 101.427C71.9245 101.737 71.6006 102.11 71.1848 102.205C70.7543 102.366 70.3046 102.23 70.2201 101.92C70.1355 101.609 70.4595 101.236 70.85 101.101C71.3257 100.968 71.7755 101.103 71.84 101.427ZM68.6976 101.903C68.6568 102.237 68.2516 102.438 67.7619 102.327C67.2976 102.257 66.9772 101.928 67.0632 101.622C67.104 101.288 67.5091 101.087 67.9988 101.197C68.4232 101.293 68.7763 101.629 68.6976 101.903ZM65.7267 101.235C65.6227 101.469 65.2069 101.564 64.7972 101.404C64.3875 101.243 64.1724 100.903 64.3037 100.624C64.4097 100.305 64.8382 100.23 65.2079 100.416C65.6177 100.576 65.8454 100.936 65.7267 101.235V101.235ZM63.1998 100.119C63.1338 100.412 62.7706 100.502 62.4241 100.441C62.0397 100.321 61.8099 100.046 61.9013 99.7923C61.9673 99.4985 62.3305 99.4087 62.677 99.4694C63.0614 99.5901 63.2912 99.8647 63.1998 100.119ZM60.9239 99.4868C60.9578 99.7174 60.7232 99.9219 60.4147 99.9211C60.0789 99.9657 59.8198 99.8216 59.7858 99.5911C59.7899 99.4205 59.9719 99.2214 60.295 99.1568C60.6435 99.1323 60.9027 99.2763 60.9239 99.4868Z" fill="#FF0000"/>
</svg>
