<svg width="177" height="201" viewBox="0 0 177 201" fill="none" xmlns="http://www.w3.org/2000/svg">
<path d="M16.0557 180.071L0 0H176.42L160.343 180.043L88.1027 200.071L16.0557 180.071Z" fill="#E44F26"/>
<path d="M88.2097 184.766L146.588 168.582L160.321 14.7269H88.2097V184.766Z" fill="#F1662A"/>
<path d="M88.2096 81.5075H58.9849L56.9699 58.8923H88.2096V36.8059H88.131H32.8328L33.3615 42.7366L38.7849 103.594H88.2096V81.5075Z" fill="#EBEBEB"/>
<path d="M88.2094 138.863L88.1094 138.892L63.5149 132.254L61.9429 114.64H49.9887H39.7708L42.8647 149.31L88.1094 161.871L88.2094 161.843V138.863Z" fill="#EBEBEB"/>
<path d="M88.1311 81.5074V103.594H115.326L112.768 132.24L88.1311 138.885V161.865L133.411 149.31L133.74 145.58L138.928 87.4381L139.471 81.5074H133.519H88.1311Z" fill="white"/>
<path d="M88.1311 36.8059V50.5251V58.8423V58.8923H141.407H141.479L141.922 53.9334L142.929 42.7366L143.458 36.8059H88.1311Z" fill="white"/>
</svg>
