<svg width="147" height="147" viewBox="0 0 147 147" fill="none" xmlns="http://www.w3.org/2000/svg">
<path fill-rule="evenodd" clip-rule="evenodd" d="M4.73575 64.1702C3.47976 62.1857 3.06356 59.7835 3.57872 57.4921C4.09387 55.2007 5.49818 53.2077 7.4827 51.9517L82.0856 4.73603C83.0685 4.11398 84.1641 3.69168 85.3096 3.49335C86.4556 3.29476 87.6293 3.32386 88.764 3.57884C89.8984 3.83408 90.9717 4.31005 91.9225 4.97978C92.8729 5.6498 93.6825 6.50014 94.3044 7.4828L141.52 82.0857C142.142 83.0686 142.564 84.1643 142.763 85.3097C142.961 86.4558 142.932 87.6295 142.677 88.7641C142.422 89.8986 141.946 90.9719 141.276 91.9228C140.606 92.8729 139.756 93.6826 138.773 94.3047L64.1701 141.52C62.1856 142.776 59.7832 143.192 57.4919 142.677C55.2004 142.162 53.2077 140.758 51.9515 138.773L4.73575 64.1702ZM57.0662 68.3968L69.1955 60.7202L73.0527 66.8148C72.5829 62.2036 75.0698 56.2184 81.8003 51.9587C94.7021 43.7932 102.179 48.8304 110.279 61.6292L125.281 85.3334L112.219 93.6003L99.0616 72.8109C94.4489 65.5225 90.0988 62.518 85.6519 65.3324C79.4848 69.2355 79.7238 75.2913 84.1335 82.2588L97.291 103.048L84.2289 111.315L57.0662 68.3968ZM61.4825 124.927L74.5446 116.66L47.3819 73.7419L34.3198 82.0088L61.4825 124.927ZM40.3905 58.5658C41.0884 59.6685 41.5623 60.8979 41.7851 62.1838C42.0078 63.4696 41.9752 64.7868 41.6889 66.06C41.4027 67.3332 40.8685 68.5376 40.1168 69.6044C39.3651 70.6711 38.4106 71.5794 37.3079 72.2773C36.2052 72.9752 34.9758 73.4491 33.69 73.6719C32.4041 73.8947 31.087 73.862 29.8137 73.5757C28.5405 73.2895 27.3361 72.7552 26.2693 72.0036C25.2026 71.2519 24.2943 70.2974 23.5964 69.1947C22.1869 66.9677 21.7199 64.2719 22.2979 61.7005C22.8761 59.1291 24.452 56.8927 26.679 55.4832C28.9061 54.0737 31.6018 53.6067 34.1732 54.1848C36.7446 54.7629 38.981 56.3388 40.3905 58.5658V58.5658Z" fill="#FF0000"/>
</svg>
