<svg width="178" height="200" viewBox="0 0 178 200" fill="none" xmlns="http://www.w3.org/2000/svg">
<path d="M177.94 58.8001C177.939 55.4372 177.22 52.4656 175.765 49.9152C174.336 47.4073 172.197 45.3053 169.327 43.6434C145.637 29.9836 121.924 16.3656 98.2417 2.69197C91.8571 -0.993985 85.6668 -0.859608 79.3295 2.87926C69.9001 8.44022 22.6908 35.4875 8.62307 43.6357C2.82957 46.9896 0.0104438 52.1223 0.00905127 58.7938C0 86.2644 0.00905127 113.734 0 141.206C0 144.495 0.689985 147.408 2.0804 149.921C3.5098 152.504 5.67932 154.664 8.61541 156.364C22.6839 164.512 69.8994 191.557 79.3267 197.119C85.6668 200.86 91.8571 200.994 98.2438 197.307C121.927 183.632 145.641 170.015 169.335 156.355C172.271 154.656 174.44 152.495 175.87 149.914C177.258 147.402 177.949 144.488 177.949 141.198C177.949 141.198 177.949 86.2714 177.94 58.8001" fill="#A179DC"/>
<path d="M89.2469 99.7319L2.08044 149.921C3.50985 152.504 5.67937 154.664 8.61546 156.364C22.6839 164.512 69.8995 191.557 79.3267 197.119C85.6668 200.86 91.8572 200.994 98.2439 197.307C121.927 183.632 145.641 170.015 169.335 156.355C172.271 154.656 174.44 152.495 175.87 149.914L89.2469 99.7319Z" fill="#280068"/>
<path d="M177.94 58.8001C177.939 55.4373 177.22 52.4657 175.765 49.9153L89.2469 99.7321L175.87 149.914C177.258 147.402 177.948 144.488 177.949 141.198C177.949 141.198 177.949 86.2714 177.94 58.8001" fill="#390091"/>
<path d="M140.568 80.97V90.351H149.949V80.97H154.639V90.351H164.021V95.0416H154.639V104.423H164.021V109.113H154.639V118.494H149.949V109.113H140.568V118.494H135.877V109.113H126.496V104.423H135.877V95.0416H126.496V90.351H135.877V80.97H140.568ZM149.949 95.0416H140.568V104.423H149.949V95.0416Z" fill="white"/>
<path d="M89.4382 33.856C113.907 33.856 135.27 47.1448 146.713 66.8973L146.601 66.7072L117.812 83.2837C112.14 73.6799 101.742 67.1989 89.8139 67.0654L89.4382 67.0633C71.2482 67.0633 56.5013 81.8095 56.5013 99.9994C56.5013 105.948 58.0872 111.524 60.8452 116.34C66.5225 126.251 77.1952 132.936 89.4382 132.936C101.757 132.936 112.49 126.166 118.139 116.149L118.002 116.39L146.747 133.043C135.43 152.628 114.359 165.876 90.175 166.14L89.4382 166.144C64.8922 166.144 43.468 152.773 32.0542 132.916C26.4821 123.222 23.2939 111.984 23.2939 99.9994C23.2939 63.4699 52.9071 33.856 89.4382 33.856V33.856Z" fill="white"/>
</svg>
