<svg width="203" height="200" viewBox="0 0 203 200" fill="none" xmlns="http://www.w3.org/2000/svg">
<path fill-rule="evenodd" clip-rule="evenodd" d="M48.4373 33.1515C46.5113 33.1454 44.5927 33.3898 42.7297 33.8786V34.133H43.006C44.3403 36.1471 45.8279 38.0553 47.4557 39.8406C48.5754 42.0654 49.5497 44.283 50.6621 46.5078C50.8002 46.3697 50.9384 46.2243 50.9384 46.2243C51.9712 45.4044 52.7796 44.3363 53.2882 43.1196C53.7967 41.9029 53.9889 40.5772 53.8467 39.2662C53.2378 38.3273 52.6796 37.3564 52.1744 36.3579C51.3383 34.9692 49.5279 34.2712 48.4154 33.1588" fill="#5D87A1"/>
<path fill-rule="evenodd" clip-rule="evenodd" d="M186.545 154.485C177.374 153.841 168.171 155.17 159.556 158.382C157.469 159.218 154.139 159.218 153.849 161.858C154.968 162.97 155.099 164.766 156.081 166.315C157.985 169.539 160.432 172.41 163.315 174.8C166.223 177.024 169.132 179.242 172.222 181.191C177.638 184.542 183.768 186.484 189.046 189.821C192.114 191.77 195.168 194.271 198.236 196.365C199.763 197.477 200.73 199.273 202.679 200V199.578C202.106 198.033 201.398 196.542 200.563 195.121C199.174 193.74 197.778 192.482 196.382 191.093C192.304 185.701 187.425 180.963 181.914 177.046C177.457 173.978 167.714 169.776 165.918 164.686L165.634 164.403C168.896 163.94 172.11 163.191 175.239 162.163C179.965 160.913 184.277 161.196 189.141 159.982C191.373 159.422 195.408 158.033 195.408 158.033V155.852C192.921 153.38 191.14 150.072 188.523 147.738C181.402 141.522 173.813 135.863 165.823 130.812C161.555 128.056 156.052 126.282 151.507 123.934C149.864 123.105 147.145 122.698 146.149 121.316C143.889 118.001 141.997 114.448 140.507 110.723C136.522 103.161 132.662 94.778 129.23 86.7802C127.199 81.4203 124.856 76.1837 122.214 71.0972C109.463 49.4193 91.0589 31.6157 68.97 19.5913C63.3965 16.8936 57.4708 14.9942 51.3676 13.9493C47.9212 13.8038 44.4894 13.5348 41.0504 13.404C38.8304 11.9496 36.7187 10.3361 34.7321 8.57619C26.8652 3.59574 6.65256 -7.10678 0.865061 7.06388C-2.84301 16.0141 6.37627 24.8117 9.53904 29.3559C12.2059 32.56 14.5557 36.0153 16.5553 39.6731C17.5223 42.0143 17.7986 44.4936 18.7365 46.9438C20.7548 53.2338 23.1512 59.3961 25.9127 65.397C27.3897 68.3629 29.0912 71.2116 31.0022 73.9183C32.1147 75.4378 34.0341 76.0995 34.4486 78.6079C32.9238 81.8853 31.8571 85.3569 31.2785 88.925C28.8751 96.5149 27.9906 104.504 28.6755 112.436C29.3604 120.368 31.6013 128.087 35.2702 135.152C37.4514 138.591 42.7009 146.16 49.7171 143.266C55.9045 140.794 54.5303 132.949 56.3189 126.078C56.7261 124.413 56.4571 123.323 57.2787 122.225V123.563C57.2787 123.563 60.7904 131.277 62.5354 135.196C67.2809 142.387 73.176 148.749 79.9852 154.027C82.6785 156.379 84.8484 159.269 86.3543 162.512V165.006H89.4589C89.3943 163.882 89.0825 162.785 88.5459 161.795C88.0093 160.805 87.261 159.945 86.3543 159.277C83.8084 156.656 81.4767 153.836 79.3817 150.843C73.6905 142.737 68.6716 134.18 64.3749 125.257C62.1937 120.894 60.3542 116.11 58.6092 111.755C57.8094 110.076 57.8094 107.538 56.4643 106.666C53.9807 109.604 51.8254 112.805 50.037 116.212C47.8659 123.098 46.6023 130.237 46.278 137.45C45.7473 137.595 46.009 137.45 45.7473 137.726C41.4648 136.599 39.9889 131.968 38.3748 128.042C34.2051 115.933 33.7844 102.847 37.1678 90.4955C38.0985 87.5509 42.1337 78.2734 40.5196 75.4596C39.7126 72.7767 37.0297 71.2426 35.561 69.1268C33.686 66.2805 32.0726 63.2702 30.7405 60.1329C27.5486 52.3096 25.9345 43.5848 22.4591 35.7033C20.5353 31.9128 18.2952 28.2912 15.7628 24.8772C12.9615 21.4667 10.4905 17.7979 8.383 13.9202C7.71409 12.3715 6.77616 9.8413 7.84496 8.15449C7.91709 7.68593 8.13992 7.25363 8.4797 6.92303C8.81949 6.59243 9.25773 6.38153 9.72808 6.32226C11.4585 4.78087 16.4244 6.74397 18.1621 7.58737C22.8325 9.42599 27.2811 11.7844 31.4239 14.6182C33.2998 16.0287 37.7204 19.5986 37.7204 19.5986H39.0291C43.4788 20.5656 48.4811 19.8676 52.669 21.1255C59.7204 23.476 66.4497 26.7002 72.6999 30.7228C91.1216 42.4662 106.097 58.8872 116.099 78.3098C117.771 81.5016 118.476 84.4317 120.003 87.7617C122.912 94.5962 126.547 101.576 129.455 108.222C132.021 114.796 135.339 121.052 139.343 126.864C141.423 129.772 149.777 131.313 153.536 132.84C156.8 133.97 160.004 135.268 163.133 136.73C167.866 139.638 172.585 142.99 177.042 146.182C179.26 147.854 186.218 151.33 186.64 154.114" fill="#00758F"/>
</svg>
