<svg width="193" height="173" viewBox="0 0 193 173" fill="none" xmlns="http://www.w3.org/2000/svg">
<path d="M158.426 0.379422C175.072 0.17941 188.875 13.912 190.292 31.5237L190.409 34.065L191.638 136.299C191.854 154.257 179.151 169.125 162.829 170.622L160.473 170.744L34.1789 172.261C17.5338 172.461 3.73012 158.728 2.31303 141.117L2.19588 138.576L0.96743 36.3413C0.751642 18.3829 13.455 3.51545 29.7765 2.01873L32.1318 1.89698L158.426 0.379422ZM111.28 17.9809L32.3364 18.9295C23.6177 19.0342 16.6412 26.7448 16.7543 36.1516L17.9827 138.386C18.0957 147.793 25.2553 155.334 33.9742 155.229L112.917 154.28L111.28 17.9809ZM68.826 54.0891L69.931 55.0615L93.9183 80.3256C96.694 83.2489 97.0536 87.8342 94.9622 91.1789L94.063 92.3693L70.6897 118.203C67.6472 121.565 62.6494 121.625 59.5269 118.337C56.7512 115.413 56.3916 110.828 58.4829 107.483L59.3822 106.293L69.4551 95.1597L41.1782 95.4995C36.8188 95.5519 33.239 91.7815 33.1825 87.0781C33.1322 82.8974 35.8828 79.3866 39.5563 78.6213L40.9735 78.467L69.2504 78.1272L58.9129 67.2392C55.7902 63.9505 55.7254 58.5584 58.7682 55.1956C61.4727 52.2063 65.7221 51.8267 68.826 54.0891V54.0891Z" fill="white"/>
</svg>
