<svg width="134" height="200" viewBox="0 0 134 200" fill="none" xmlns="http://www.w3.org/2000/svg">
<path d="M100 133.333C118.41 133.333 133.333 118.41 133.333 100C133.333 81.5906 118.41 66.6667 100 66.6667C81.5905 66.6667 66.6667 81.5906 66.6667 100C66.6667 118.41 81.5905 133.333 100 133.333Z" fill="#19BCFE"/>
<path fill-rule="evenodd" clip-rule="evenodd" d="M33.3333 200C51.7428 200 66.6667 185.076 66.6667 166.667C66.6667 161.641 66.6667 150.53 66.6667 133.333C51.692 133.333 40.5809 133.333 33.3333 133.333C14.9238 133.333 0 148.257 0 166.667C0 185.076 14.9238 200 33.3333 200Z" fill="#09CF83"/>
<path fill-rule="evenodd" clip-rule="evenodd" d="M33.3333 133.333H66.6667V66.6667C50.5809 66.6667 39.4698 66.6667 33.3333 66.6667C14.9238 66.6667 0 81.5906 0 100C0 118.41 14.9238 133.333 33.3333 133.333Z" fill="#A259FF"/>
<path fill-rule="evenodd" clip-rule="evenodd" d="M33.3333 66.6667H66.6667V0C50.5809 0 39.4698 0 33.3333 0C14.9238 0 0 14.9238 0 33.3333C0 51.7428 14.9238 66.6667 33.3333 66.6667Z" fill="#F24E1E"/>
<path fill-rule="evenodd" clip-rule="evenodd" d="M100 66.6667H66.6667V0H100C118.41 0 133.333 14.9238 133.333 33.3333C133.333 51.7428 118.41 66.6667 100 66.6667Z" fill="#FF7262"/>
</svg>
