<svg width="90" height="200" viewBox="0 0 90 200" fill="none" xmlns="http://www.w3.org/2000/svg">
<path fill-rule="evenodd" clip-rule="evenodd" d="M84.3549 65.2593C86.9866 72.8723 88.8821 80.6444 89.5052 88.7001C90.2791 98.694 89.9249 108.617 87.8179 118.447C87.7606 118.718 87.6392 118.972 87.549 119.234C86.8882 119.236 86.2143 119.154 85.5683 119.254C80.1098 120.111 74.6562 121 69.2027 121.884C63.5654 122.797 57.92 123.674 52.2926 124.65C50.2988 124.994 47.8311 124.583 47.026 127.341C47.003 127.416 46.7735 127.429 46.6407 127.472L46.9129 110.992C46.8194 97.7364 46.7276 84.4812 46.6357 71.2261L49.2625 70.7752C53.5585 70.0717 57.8544 69.3585 62.1537 68.6747C67.2842 67.8598 72.4197 67.0678 77.5535 66.2726C79.8179 65.9201 82.0856 65.5971 84.3549 65.2593V65.2593Z" fill="#439934"/>
<path fill-rule="evenodd" clip-rule="evenodd" d="M41.2166 175.514C38.4455 173.132 35.5777 170.854 32.9214 168.349C18.6284 154.868 8.17376 139 3.02517 119.87C1.60684 114.605 0.660751 109.255 0.35741 103.815C0.144252 100.007 -0.164013 96.1654 0.104894 92.3778C0.821434 82.3036 2.27747 72.3261 5.23218 62.6225L5.3945 62.3962C5.68145 62.7783 6.09464 63.1161 6.24058 63.5473C9.12477 72.0408 11.9877 80.5409 14.8358 89.046C23.7851 115.773 32.723 142.506 41.6872 169.226C41.8626 169.748 42.3168 170.176 42.6431 170.646L41.2166 175.514Z" fill="#45A538"/>
<path fill-rule="evenodd" clip-rule="evenodd" d="M84.3549 65.259C82.0856 65.5968 79.8163 65.9198 77.5519 66.269C72.4181 67.0643 67.2826 67.8563 62.152 68.6712C57.8528 69.3549 53.5568 70.0682 49.2609 70.7716L46.6341 71.2225L46.6144 69.5091C46.5275 68.1006 46.3783 66.6937 46.3619 65.2852C46.2488 56.3031 46.1783 47.3209 46.0668 38.3387C45.9979 32.7163 45.8946 27.0955 45.7798 21.4746C45.7093 17.9821 45.6339 14.488 45.4765 11.0004C45.3912 9.12622 45.0895 7.2619 44.9665 5.38775C44.8977 4.31048 44.9928 3.22501 45.0141 2.14282C46.3537 4.73843 47.6638 7.35372 49.0411 9.92966C51.217 14.0026 54.6833 17.0032 57.8036 20.2777C70.1389 33.218 78.8964 48.2637 84.3549 65.259V65.259Z" fill="#46A037"/>
<path fill-rule="evenodd" clip-rule="evenodd" d="M46.6391 127.47C46.7719 127.428 47.0031 127.415 47.0244 127.339C47.8295 124.581 50.2972 124.993 52.2911 124.649C57.9185 123.675 63.5639 122.796 69.2011 121.882C74.6547 120.999 80.1083 120.11 85.5667 119.252C86.2128 119.151 86.8867 119.234 87.5475 119.233C86.5276 122.873 85.7242 126.592 84.4304 130.132C82.9613 134.147 81.1839 138.066 79.2966 141.908C76.4764 147.652 72.9625 153.008 68.8797 157.916C65.7332 161.7 62.2259 165.198 58.7104 168.653C56.7674 170.563 54.4768 172.119 52.3452 173.836L51.7926 173.459L49.802 171.757L47.7426 167.243C46.3243 161.958 45.5799 156.578 45.4569 151.111L45.4946 150.191L45.775 146.214C45.8685 144.856 45.9931 143.5 46.0505 142.139C46.262 137.25 46.4456 132.36 46.6391 127.47V127.47Z" fill="#409433"/>
<path fill-rule="evenodd" clip-rule="evenodd" d="M46.6391 127.47C46.4456 132.36 46.262 137.249 46.0537 142.14C45.9964 143.501 45.8717 144.857 45.7783 146.215L44.5239 146.689C41.7381 138.487 38.9507 130.372 36.2239 122.236C31.7147 108.776 27.2597 95.2948 22.7572 81.8314C19.122 70.9636 15.4573 60.1073 11.7713 49.2559C11.5992 48.7476 11.104 48.3508 10.7596 47.9015L18.7875 33.1411C19.063 33.6199 19.427 34.0675 19.6008 34.5824C23.3147 45.5732 27.022 56.5656 30.6981 67.5695C35.4795 81.8839 40.2312 96.2098 45.0093 110.526C45.1995 111.098 45.5143 111.626 45.8143 112.267L46.9129 110.988C46.8211 116.483 46.7293 121.976 46.6391 127.47V127.47Z" fill="#4FAA41"/>
<path fill-rule="evenodd" clip-rule="evenodd" d="M10.7613 47.9033C11.1056 48.3526 11.5991 48.7494 11.773 49.2577C15.459 60.1091 19.1236 70.9654 22.7588 81.8332C27.2614 95.2966 31.7164 108.778 36.2255 122.238C38.9506 130.373 41.7381 138.489 44.5256 146.691L45.7799 146.217L45.4995 150.195L45.2454 151.111C44.8092 155.466 44.4419 159.831 43.9107 164.176C43.6434 166.354 43.0761 168.492 42.6448 170.648C42.3202 170.177 41.8644 169.75 41.6889 169.228C32.7248 142.506 23.7869 115.775 14.8375 89.0478C11.9894 80.5428 9.12651 72.0427 6.24231 63.5491C6.09638 63.1179 5.68482 62.7801 5.39624 62.3981C7.18349 57.566 8.97238 52.7338 10.7613 47.9033V47.9033Z" fill="#4AA73C"/>
<path fill-rule="evenodd" clip-rule="evenodd" d="M46.9113 110.99L45.8127 112.269C45.5127 111.628 45.1978 111.098 45.0076 110.528C40.2313 96.2117 35.4778 81.8858 30.6965 67.5714C27.0204 56.5675 23.313 45.5751 19.5992 34.5843C19.427 34.0695 19.063 33.6202 18.7859 33.1431L28.7141 20.083C29.0273 20.5011 29.4733 20.8733 29.6356 21.3439C32.392 29.4128 35.1237 37.4915 37.839 45.5751C40.3755 53.1242 42.8744 60.6848 45.4405 68.224C45.6127 68.729 46.2112 69.0865 46.6112 69.5128L46.6309 71.2263C46.726 84.4781 46.8195 97.735 46.9113 110.99V110.99Z" fill="#57AE47"/>
<path fill-rule="evenodd" clip-rule="evenodd" d="M46.6144 69.5093C46.2143 69.083 45.6158 68.7255 45.4437 68.2205C42.8776 60.6813 40.3787 53.1207 37.8421 45.5716C35.1268 37.488 32.3951 29.4109 29.6388 21.3404C29.4765 20.8698 29.0305 20.4976 28.7173 20.0795C31.9458 16.9182 35.0743 13.6438 38.4324 10.6284C41.4182 7.94917 43.8187 5.07645 43.9286 0.842795C43.9335 0.667349 44.0253 0.491904 44.1663 0L45.0173 2.14142C44.996 3.22525 44.8993 4.30908 44.9698 5.38635C45.0928 7.2605 45.3945 9.12482 45.4797 10.999C45.6371 14.4866 45.7126 17.9807 45.7831 21.4732C45.8962 27.0941 45.9995 32.7149 46.07 38.3373C46.1799 47.3195 46.252 56.3017 46.3652 65.2838C46.3783 66.6956 46.5259 68.1008 46.6144 69.5093V69.5093Z" fill="#60B24F"/>
<path fill-rule="evenodd" clip-rule="evenodd" d="M42.6415 170.646C43.0727 168.49 43.64 166.35 43.9073 164.174C44.4402 159.831 44.8059 155.464 45.242 151.109L45.3502 151.093L45.4585 151.111C45.5814 156.578 46.3258 161.958 47.7442 167.242C47.4556 167.623 47.0473 167.962 46.8948 168.392C45.7028 171.753 44.5796 175.141 43.381 178.502C43.217 178.961 42.7612 179.318 42.4398 179.722L41.215 175.514L42.6415 170.646Z" fill="#A9AA88"/>
<path fill-rule="evenodd" clip-rule="evenodd" d="M42.4415 179.724C42.7629 179.32 43.2204 178.963 43.3827 178.504C44.5813 175.142 45.7061 171.757 46.8965 168.394C47.049 167.964 47.4557 167.625 47.7459 167.244L49.8037 171.76C49.3971 172.337 48.8363 172.857 48.61 173.5L44.6682 185.074C44.5059 185.538 43.9517 185.866 43.5811 186.258L42.4415 179.724Z" fill="#B6B598"/>
<path fill-rule="evenodd" clip-rule="evenodd" d="M43.5811 186.256C43.9533 185.866 44.5058 185.536 44.6682 185.072L48.6099 173.498C48.8346 172.857 49.397 172.335 49.8036 171.758L51.7958 173.458C50.8334 174.409 50.2988 175.508 50.6202 176.897L50.0152 178.878C49.7397 179.217 49.3412 179.512 49.2051 179.901C47.8295 183.841 46.5161 187.802 45.1305 191.742C44.9551 192.243 44.4681 192.634 44.1238 193.074C43.9451 190.8 43.7631 188.53 43.5811 186.256V186.256Z" fill="#C2C1A7"/>
<path fill-rule="evenodd" clip-rule="evenodd" d="M44.1253 193.074C44.468 192.633 44.955 192.241 45.1321 191.742C46.5176 187.804 47.831 183.842 49.2067 179.901C49.3428 179.514 49.7396 179.217 50.0167 178.877L49.1821 187.969C48.9591 188.227 48.6361 188.452 48.5295 188.752C47.5867 191.398 46.698 194.064 45.7519 196.711C45.5568 197.257 45.1829 197.739 44.8911 198.249C44.632 197.909 44.168 197.581 44.1466 197.227C44.063 195.848 44.1204 194.459 44.1253 193.074V193.074Z" fill="#CECDB7"/>
<path fill-rule="evenodd" clip-rule="evenodd" d="M44.8894 198.249C45.1813 197.737 45.5551 197.255 45.7502 196.711C46.698 194.066 47.585 191.4 48.5279 188.752C48.6344 188.452 48.9591 188.229 49.1804 187.969L49.2001 193.938L47.203 199.06L44.8894 198.249Z" fill="#DBDAC7"/>
<path fill-rule="evenodd" clip-rule="evenodd" d="M47.203 199.062L49.2001 193.94L49.6117 200L47.203 199.062Z" fill="#EBE9DC"/>
<path fill-rule="evenodd" clip-rule="evenodd" d="M50.6201 176.899C50.2987 175.51 50.8316 174.41 51.7957 173.46L52.3483 173.837L50.6201 176.899Z" fill="#CECDB7"/>
<path fill-rule="evenodd" clip-rule="evenodd" d="M45.4584 151.113L45.3502 151.095L45.2419 151.111L45.4961 150.195L45.4584 151.113Z" fill="#4FAA41"/>
</svg>
