<svg width="136" height="129" viewBox="0 0 136 129" fill="none" xmlns="http://www.w3.org/2000/svg">
<path fill-rule="evenodd" clip-rule="evenodd" d="M84.8406 3.97092L6.03131 53.8488C3.06301 55.7825 2.21229 59.7496 4.12673 62.7304L6.57528 66.5992C6.8228 67.0201 7.24933 67.3047 7.73306 67.3716L68.0807 74.7836C72.1114 75.6203 76.0792 73.1091 77.0482 69.1081L96.1559 11.3592C96.3024 10.8934 96.2278 10.3861 95.9533 9.98222L93.5577 6.19699C91.7512 3.19393 87.8657 2.20172 84.8406 3.97092V3.97092ZM11.8105 74.7918C11.4849 74.283 11.4836 73.6317 11.807 73.1216C12.1133 72.5557 12.7631 72.2682 13.3879 72.4221L43.4867 77.3044C43.9234 77.3611 44.3087 77.6182 44.5287 77.9996C44.7804 78.3639 44.8782 78.8128 44.8009 79.2488L37.0413 109.663C36.964 110.313 36.4506 110.825 35.8006 110.9C35.1496 111.013 34.4994 110.698 34.1843 110.117L11.8224 74.7842L11.8105 74.7918ZM39.7723 118.973C39.5371 118.588 39.4609 118.126 39.5598 117.686L49.4994 79.6701C49.6876 78.8797 50.4717 78.3835 51.2666 78.5516L67.305 81.1947C74.4552 82.5737 81.4439 78.1506 83.2579 71.0982L87.7338 55.4718C87.9465 54.6992 88.7117 54.2149 89.501 54.3533L128.094 61.5858C128.54 61.6728 128.929 61.9422 129.167 62.3287L131.955 66.7349C132.894 68.168 133.224 69.9153 132.874 71.5922C132.524 73.2691 131.522 74.7382 130.089 75.6762L51.3748 125.494C48.3366 127.352 44.3672 126.4 42.5025 123.366L39.7138 118.96L39.7723 118.973ZM123.637 53.4862C124.003 54.0272 124.009 54.7346 123.653 55.2821C123.278 55.7999 122.624 56.0348 122.004 55.8741L91.1726 49.8336C90.7455 49.7168 90.3816 49.4363 90.1601 49.0529C89.9158 48.6752 89.8658 48.2038 90.0256 47.7834L98.4653 18.4434C98.6269 17.8518 99.1515 17.4319 99.7641 17.4039C100.371 17.3184 100.974 17.585 101.32 18.0917L123.674 53.4126L123.637 53.4862Z" fill="#FF0000"/>
</svg>
